<svg id="Layer_1" data-name="Layer 1" xmlns="http://www.w3.org/2000/svg" viewBox="0 0 800 600"><defs><style>.cls-1{fill:none;stroke:#0d1d3a;stroke-linejoin:round;stroke-width:7px;}</style></defs><title>MC-Logo-Outline</title><polygon class="cls-1" points="391.17 164.97 357.99 107.5 424.34 107.5 457.52 164.97 457.52 164.97 457.51 164.97 391.17 164.97"/><polygon class="cls-1" points="391.16 164.97 357.99 222.43 324.81 164.97 357.99 107.5 391.17 164.97 391.16 164.97"/><polygon class="cls-1" points="357.99 222.43 391.17 164.97 457.51 164.97 457.52 164.97 424.34 222.43 357.99 222.43"/><polygon class="cls-1" points="490.7 222.51 523.87 165.04 557.05 222.51 523.87 279.97 523.87 279.97 523.87 279.97 490.7 222.51"/><polygon class="cls-1" points="490.69 222.5 424.35 222.5 457.52 165.04 523.87 165.04 490.7 222.51 490.69 222.5"/><polygon class="cls-1" points="424.34 222.51 490.7 222.51 523.87 279.97 523.87 279.97 457.52 279.97 424.34 222.51"/><polygon class="cls-1" points="490.7 337.51 557.05 337.51 523.87 394.97 457.52 394.97 457.52 394.97 457.52 394.97 490.7 337.51"/><polygon class="cls-1" points="490.7 337.51 457.52 280.05 523.87 280.05 557.05 337.51 490.7 337.51 490.7 337.51"/><polygon class="cls-1" points="457.52 280.05 490.7 337.51 457.52 394.97 457.52 394.97 424.34 337.51 457.52 280.05"/><polygon class="cls-1" points="391.17 394.97 424.34 452.44 357.99 452.44 324.81 394.97 324.82 394.97 324.82 394.97 391.17 394.97"/><polygon class="cls-1" points="391.17 394.97 424.35 337.51 457.52 394.97 424.34 452.44 391.17 394.97 391.17 394.97"/><polygon class="cls-1" points="424.34 337.51 391.17 394.97 324.82 394.97 324.82 394.97 357.99 337.51 424.34 337.51"/><polygon class="cls-1" points="291.64 337.36 258.46 394.82 225.28 337.36 258.46 279.89 258.46 279.89 258.46 279.9 291.64 337.36"/><polygon class="cls-1" points="291.64 337.36 357.99 337.36 324.81 394.82 258.46 394.82 291.64 337.36 291.64 337.36"/><polygon class="cls-1" points="357.99 337.36 291.64 337.36 258.46 279.9 258.46 279.89 324.81 279.89 357.99 337.36"/><polygon class="cls-1" points="291.64 222.43 225.28 222.43 258.46 164.97 324.81 164.97 324.82 164.97 324.81 164.97 291.64 222.43"/><polygon class="cls-1" points="291.63 222.43 324.81 279.89 258.46 279.89 225.28 222.43 291.64 222.43 291.63 222.43"/><polygon class="cls-1" points="324.81 279.89 291.64 222.43 324.81 164.97 324.82 164.97 357.99 222.43 324.81 279.89"/><polygon class="cls-1" points="424.39 222.43 357.94 222.43 324.72 279.97 357.94 337.51 424.39 337.51 457.61 279.97 424.39 222.43"/></svg>
